<svg viewBox="0 0 24 24" xmlns="http://www.w3.org/2000/svg"><path fill-rule="evenodd" clip-rule="evenodd" d="M9.171 9.171a3.994 3.994 0 0 1 2.83-1.17 3.999 3.999 0 1 1 0 8 4 4 0 0 1-2.829-6.829Zm2.83 5.83a2.98 2.98 0 0 0 2.12-.88c.566-.566.88-1.32.88-2.12 0-.802-.314-1.556-.88-2.122A2.976 2.976 0 0 0 12.001 9a3.002 3.002 0 0 0 0 6Z" fill="#056DAE"/><path fill-rule="evenodd" clip-rule="evenodd" d="M23.799 11.371C19.808 6.457 16.073 4 12.036 4S4.233 6.456.206 11.367a.883.883 0 0 0-.003 1.129C4.253 17.498 8.02 20 12.036 20c4.014 0 7.75-2.503 11.766-7.508a.883.883 0 0 0-.003-1.121ZM12.036 19c-3.585 0-7.082-2.245-11.002-7.066C4.928 7.204 8.425 5 12.037 5c3.6 0 7.074 2.204 10.932 6.934C19.084 16.754 15.61 19 12.036 19Z" fill="#056DAE"/></svg>